<mxfile host="app.diagrams.net" agent="Mozilla/5.0 (X11; Linux x86_64) AppleWebKit/537.36 (KHTML, like Gecko) Chrome/134.0.0.0 Safari/537.36" version="26.1.0">
  <diagram name="Page-1" id="wX3Hm2YTBJ8btRxVGOLQ">
    <mxGraphModel dx="3236" dy="2620" grid="1" gridSize="10" guides="1" tooltips="1" connect="1" arrows="1" fold="1" page="1" pageScale="1" pageWidth="850" pageHeight="1100" math="0" shadow="0">
      <root>
        <mxCell id="0" />
        <mxCell id="1" parent="0" />
        <mxCell id="X8TvfzznWNyuIWe-dNTO-1" value="&lt;font style=&quot;font-size: 18px;&quot;&gt;Product&lt;/font&gt;" style="swimlane;fontStyle=1;align=center;verticalAlign=middle;childLayout=stackLayout;horizontal=1;startSize=26;horizontalStack=0;resizeParent=1;resizeParentMax=0;resizeLast=0;collapsible=1;marginBottom=0;whiteSpace=wrap;html=1;fontSize=16;shadow=0;strokeWidth=1;fillColor=#dae8fc;strokeColor=#6c8ebf;swimlaneFillColor=none;gradientColor=none;swimlaneLine=1;glass=0;rounded=1;" vertex="1" parent="1">
          <mxGeometry x="1040" y="72" width="210" height="268" as="geometry">
            <mxRectangle x="320" y="360" width="130" height="40" as="alternateBounds" />
          </mxGeometry>
        </mxCell>
        <mxCell id="X8TvfzznWNyuIWe-dNTO-2" value="- Long: id" style="text;align=left;verticalAlign=middle;spacingLeft=4;spacingRight=4;overflow=hidden;rotatable=0;points=[[0,0.5],[1,0.5]];portConstraint=eastwest;whiteSpace=wrap;html=1;fontSize=16;shadow=0;strokeWidth=1;fillColor=#dae8fc;strokeColor=#6c8ebf;swimlaneFillColor=none;gradientColor=none;swimlaneLine=1;" vertex="1" parent="X8TvfzznWNyuIWe-dNTO-1">
          <mxGeometry y="26" width="210" height="26" as="geometry" />
        </mxCell>
        <mxCell id="X8TvfzznWNyuIWe-dNTO-3" value="- String: name" style="text;align=left;verticalAlign=middle;spacingLeft=4;spacingRight=4;overflow=hidden;rotatable=0;points=[[0,0.5],[1,0.5]];portConstraint=eastwest;whiteSpace=wrap;html=1;fontSize=16;shadow=0;strokeWidth=1;fillColor=#dae8fc;strokeColor=#6c8ebf;swimlaneFillColor=none;gradientColor=none;swimlaneLine=1;" vertex="1" parent="X8TvfzznWNyuIWe-dNTO-1">
          <mxGeometry y="52" width="210" height="26" as="geometry" />
        </mxCell>
        <mxCell id="X8TvfzznWNyuIWe-dNTO-4" value="- String: details" style="text;align=left;verticalAlign=middle;spacingLeft=4;spacingRight=4;overflow=hidden;rotatable=0;points=[[0,0.5],[1,0.5]];portConstraint=eastwest;whiteSpace=wrap;html=1;fontSize=16;shadow=0;strokeWidth=1;fillColor=#dae8fc;strokeColor=#6c8ebf;swimlaneFillColor=none;gradientColor=none;swimlaneLine=1;" vertex="1" parent="X8TvfzznWNyuIWe-dNTO-1">
          <mxGeometry y="78" width="210" height="26" as="geometry" />
        </mxCell>
        <mxCell id="X8TvfzznWNyuIWe-dNTO-5" value="- LocalDate: harvestDate" style="text;align=left;verticalAlign=middle;spacingLeft=4;spacingRight=4;overflow=hidden;rotatable=0;points=[[0,0.5],[1,0.5]];portConstraint=eastwest;whiteSpace=wrap;html=1;fontSize=16;shadow=0;strokeWidth=1;fillColor=#dae8fc;strokeColor=#6c8ebf;swimlaneFillColor=none;gradientColor=none;swimlaneLine=1;" vertex="1" parent="X8TvfzznWNyuIWe-dNTO-1">
          <mxGeometry y="104" width="210" height="26" as="geometry" />
        </mxCell>
        <mxCell id="X8TvfzznWNyuIWe-dNTO-6" value="- Category: category" style="text;align=left;verticalAlign=middle;spacingLeft=4;spacingRight=4;overflow=hidden;rotatable=0;points=[[0,0.5],[1,0.5]];portConstraint=eastwest;whiteSpace=wrap;html=1;fontSize=16;shadow=0;strokeWidth=1;fillColor=#dae8fc;strokeColor=#6c8ebf;swimlaneFillColor=none;gradientColor=none;swimlaneLine=1;" vertex="1" parent="X8TvfzznWNyuIWe-dNTO-1">
          <mxGeometry y="130" width="210" height="26" as="geometry" />
        </mxCell>
        <mxCell id="X8TvfzznWNyuIWe-dNTO-7" value="- Double: price" style="text;align=left;verticalAlign=middle;spacingLeft=4;spacingRight=4;overflow=hidden;rotatable=0;points=[[0,0.5],[1,0.5]];portConstraint=eastwest;whiteSpace=wrap;html=1;fontSize=16;shadow=0;strokeWidth=1;fillColor=#dae8fc;strokeColor=#6c8ebf;swimlaneFillColor=none;gradientColor=none;swimlaneLine=1;" vertex="1" parent="X8TvfzznWNyuIWe-dNTO-1">
          <mxGeometry y="156" width="210" height="26" as="geometry" />
        </mxCell>
        <mxCell id="X8TvfzznWNyuIWe-dNTO-8" value="- Enum: weightType" style="text;align=left;verticalAlign=middle;spacingLeft=4;spacingRight=4;overflow=hidden;rotatable=0;points=[[0,0.5],[1,0.5]];portConstraint=eastwest;whiteSpace=wrap;html=1;fontSize=16;shadow=0;strokeWidth=1;fillColor=#dae8fc;strokeColor=#6c8ebf;swimlaneFillColor=none;gradientColor=none;swimlaneLine=1;" vertex="1" parent="X8TvfzznWNyuIWe-dNTO-1">
          <mxGeometry y="182" width="210" height="26" as="geometry" />
        </mxCell>
        <mxCell id="X8TvfzznWNyuIWe-dNTO-9" value="" style="line;strokeWidth=1;align=left;verticalAlign=middle;spacingTop=-1;spacingLeft=3;spacingRight=3;rotatable=0;labelPosition=right;points=[];portConstraint=eastwest;fontSize=16;shadow=0;fillColor=#dae8fc;strokeColor=#6c8ebf;swimlaneFillColor=none;gradientColor=none;swimlaneLine=1;" vertex="1" parent="X8TvfzznWNyuIWe-dNTO-1">
          <mxGeometry y="208" width="210" height="8" as="geometry" />
        </mxCell>
        <mxCell id="X8TvfzznWNyuIWe-dNTO-10" value="+ method(type): type" style="text;align=left;verticalAlign=middle;spacingLeft=4;spacingRight=4;overflow=hidden;rotatable=0;points=[[0,0.5],[1,0.5]];portConstraint=eastwest;whiteSpace=wrap;html=1;fontSize=16;shadow=0;strokeWidth=1;fillColor=#dae8fc;strokeColor=#6c8ebf;swimlaneFillColor=none;gradientColor=none;swimlaneLine=1;" vertex="1" parent="X8TvfzznWNyuIWe-dNTO-1">
          <mxGeometry y="216" width="210" height="26" as="geometry" />
        </mxCell>
        <mxCell id="X8TvfzznWNyuIWe-dNTO-11" value="+ method(type): type" style="text;align=left;verticalAlign=middle;spacingLeft=4;spacingRight=4;overflow=hidden;rotatable=0;points=[[0,0.5],[1,0.5]];portConstraint=eastwest;whiteSpace=wrap;html=1;fontSize=16;shadow=0;strokeWidth=1;fillColor=#dae8fc;strokeColor=#6c8ebf;swimlaneFillColor=none;gradientColor=none;swimlaneLine=1;" vertex="1" parent="X8TvfzznWNyuIWe-dNTO-1">
          <mxGeometry y="242" width="210" height="26" as="geometry" />
        </mxCell>
        <mxCell id="X8TvfzznWNyuIWe-dNTO-12" value="&lt;font style=&quot;font-size: 18px;&quot;&gt;Category&lt;/font&gt;" style="swimlane;fontStyle=1;align=center;verticalAlign=middle;childLayout=stackLayout;horizontal=1;startSize=26;horizontalStack=0;resizeParent=1;resizeParentMax=0;resizeLast=0;collapsible=1;marginBottom=0;whiteSpace=wrap;html=1;fontSize=16;shadow=0;strokeWidth=1;fillColor=#dae8fc;strokeColor=#6c8ebf;swimlaneFillColor=none;gradientColor=none;swimlaneLine=1;glass=0;rounded=1;" vertex="1" parent="1">
          <mxGeometry x="1290" y="88" width="180" height="164" as="geometry">
            <mxRectangle x="320" y="360" width="130" height="40" as="alternateBounds" />
          </mxGeometry>
        </mxCell>
        <mxCell id="X8TvfzznWNyuIWe-dNTO-13" value="- Long: id" style="text;align=left;verticalAlign=middle;spacingLeft=4;spacingRight=4;overflow=hidden;rotatable=0;points=[[0,0.5],[1,0.5]];portConstraint=eastwest;whiteSpace=wrap;html=1;fontSize=16;shadow=0;strokeWidth=1;fillColor=#dae8fc;strokeColor=#6c8ebf;swimlaneFillColor=none;gradientColor=none;swimlaneLine=1;" vertex="1" parent="X8TvfzznWNyuIWe-dNTO-12">
          <mxGeometry y="26" width="180" height="26" as="geometry" />
        </mxCell>
        <mxCell id="X8TvfzznWNyuIWe-dNTO-14" value="- String: name" style="text;align=left;verticalAlign=middle;spacingLeft=4;spacingRight=4;overflow=hidden;rotatable=0;points=[[0,0.5],[1,0.5]];portConstraint=eastwest;whiteSpace=wrap;html=1;fontSize=16;shadow=0;strokeWidth=1;fillColor=#dae8fc;strokeColor=#6c8ebf;swimlaneFillColor=none;gradientColor=none;swimlaneLine=1;" vertex="1" parent="X8TvfzznWNyuIWe-dNTO-12">
          <mxGeometry y="52" width="180" height="26" as="geometry" />
        </mxCell>
        <mxCell id="X8TvfzznWNyuIWe-dNTO-15" value="- String: description" style="text;align=left;verticalAlign=middle;spacingLeft=4;spacingRight=4;overflow=hidden;rotatable=0;points=[[0,0.5],[1,0.5]];portConstraint=eastwest;whiteSpace=wrap;html=1;fontSize=16;shadow=0;strokeWidth=1;fillColor=#dae8fc;strokeColor=#6c8ebf;swimlaneFillColor=none;gradientColor=none;swimlaneLine=1;" vertex="1" parent="X8TvfzznWNyuIWe-dNTO-12">
          <mxGeometry y="78" width="180" height="26" as="geometry" />
        </mxCell>
        <mxCell id="X8TvfzznWNyuIWe-dNTO-16" value="" style="line;strokeWidth=1;align=left;verticalAlign=middle;spacingTop=-1;spacingLeft=3;spacingRight=3;rotatable=0;labelPosition=right;points=[];portConstraint=eastwest;fontSize=16;shadow=0;fillColor=#dae8fc;strokeColor=#6c8ebf;swimlaneFillColor=none;gradientColor=none;swimlaneLine=1;" vertex="1" parent="X8TvfzznWNyuIWe-dNTO-12">
          <mxGeometry y="104" width="180" height="8" as="geometry" />
        </mxCell>
        <mxCell id="X8TvfzznWNyuIWe-dNTO-17" value="+ method(type): type" style="text;align=left;verticalAlign=middle;spacingLeft=4;spacingRight=4;overflow=hidden;rotatable=0;points=[[0,0.5],[1,0.5]];portConstraint=eastwest;whiteSpace=wrap;html=1;fontSize=16;shadow=0;strokeWidth=1;fillColor=#dae8fc;strokeColor=#6c8ebf;swimlaneFillColor=none;gradientColor=none;swimlaneLine=1;" vertex="1" parent="X8TvfzznWNyuIWe-dNTO-12">
          <mxGeometry y="112" width="180" height="26" as="geometry" />
        </mxCell>
        <mxCell id="X8TvfzznWNyuIWe-dNTO-18" value="+ method(type): type" style="text;align=left;verticalAlign=middle;spacingLeft=4;spacingRight=4;overflow=hidden;rotatable=0;points=[[0,0.5],[1,0.5]];portConstraint=eastwest;whiteSpace=wrap;html=1;fontSize=16;shadow=0;strokeWidth=1;fillColor=#dae8fc;strokeColor=#6c8ebf;swimlaneFillColor=none;gradientColor=none;swimlaneLine=1;" vertex="1" parent="X8TvfzznWNyuIWe-dNTO-12">
          <mxGeometry y="138" width="180" height="26" as="geometry" />
        </mxCell>
        <mxCell id="X8TvfzznWNyuIWe-dNTO-19" value="&lt;font style=&quot;font-size: 18px;&quot;&gt;Client&lt;/font&gt;" style="swimlane;fontStyle=1;align=center;verticalAlign=middle;childLayout=stackLayout;horizontal=1;startSize=26;horizontalStack=0;resizeParent=1;resizeParentMax=0;resizeLast=0;collapsible=1;marginBottom=0;whiteSpace=wrap;html=1;fontSize=16;shadow=0;strokeWidth=1;fillColor=#dae8fc;strokeColor=#6c8ebf;swimlaneFillColor=none;gradientColor=none;swimlaneLine=1;glass=0;rounded=1;" vertex="1" parent="1">
          <mxGeometry y="82" width="180" height="190" as="geometry">
            <mxRectangle x="320" y="360" width="130" height="40" as="alternateBounds" />
          </mxGeometry>
        </mxCell>
        <mxCell id="X8TvfzznWNyuIWe-dNTO-20" value="- Long: id" style="text;align=left;verticalAlign=middle;spacingLeft=4;spacingRight=4;overflow=hidden;rotatable=0;points=[[0,0.5],[1,0.5]];portConstraint=eastwest;whiteSpace=wrap;html=1;fontSize=16;shadow=0;strokeWidth=1;fillColor=#dae8fc;strokeColor=#6c8ebf;swimlaneFillColor=none;gradientColor=none;swimlaneLine=1;" vertex="1" parent="X8TvfzznWNyuIWe-dNTO-19">
          <mxGeometry y="26" width="180" height="26" as="geometry" />
        </mxCell>
        <mxCell id="X8TvfzznWNyuIWe-dNTO-21" value="- String: name" style="text;align=left;verticalAlign=middle;spacingLeft=4;spacingRight=4;overflow=hidden;rotatable=0;points=[[0,0.5],[1,0.5]];portConstraint=eastwest;whiteSpace=wrap;html=1;fontSize=16;shadow=0;strokeWidth=1;fillColor=#dae8fc;strokeColor=#6c8ebf;swimlaneFillColor=none;gradientColor=none;swimlaneLine=1;" vertex="1" parent="X8TvfzznWNyuIWe-dNTO-19">
          <mxGeometry y="52" width="180" height="26" as="geometry" />
        </mxCell>
        <mxCell id="X8TvfzznWNyuIWe-dNTO-22" value="- String: phoneNumber" style="text;align=left;verticalAlign=middle;spacingLeft=4;spacingRight=4;overflow=hidden;rotatable=0;points=[[0,0.5],[1,0.5]];portConstraint=eastwest;whiteSpace=wrap;html=1;fontSize=16;shadow=0;strokeWidth=1;fillColor=#dae8fc;strokeColor=#6c8ebf;swimlaneFillColor=none;gradientColor=none;swimlaneLine=1;" vertex="1" parent="X8TvfzznWNyuIWe-dNTO-19">
          <mxGeometry y="78" width="180" height="26" as="geometry" />
        </mxCell>
        <mxCell id="X8TvfzznWNyuIWe-dNTO-23" value="- String: email" style="text;align=left;verticalAlign=middle;spacingLeft=4;spacingRight=4;overflow=hidden;rotatable=0;points=[[0,0.5],[1,0.5]];portConstraint=eastwest;whiteSpace=wrap;html=1;fontSize=16;shadow=0;strokeWidth=1;fillColor=#dae8fc;strokeColor=#6c8ebf;swimlaneFillColor=none;gradientColor=none;swimlaneLine=1;" vertex="1" parent="X8TvfzznWNyuIWe-dNTO-19">
          <mxGeometry y="104" width="180" height="26" as="geometry" />
        </mxCell>
        <mxCell id="X8TvfzznWNyuIWe-dNTO-24" value="" style="line;strokeWidth=1;align=left;verticalAlign=middle;spacingTop=-1;spacingLeft=3;spacingRight=3;rotatable=0;labelPosition=right;points=[];portConstraint=eastwest;fontSize=16;shadow=0;fillColor=#dae8fc;strokeColor=#6c8ebf;swimlaneFillColor=none;gradientColor=none;swimlaneLine=1;" vertex="1" parent="X8TvfzznWNyuIWe-dNTO-19">
          <mxGeometry y="130" width="180" height="8" as="geometry" />
        </mxCell>
        <mxCell id="X8TvfzznWNyuIWe-dNTO-25" value="+ method(type): type" style="text;align=left;verticalAlign=middle;spacingLeft=4;spacingRight=4;overflow=hidden;rotatable=0;points=[[0,0.5],[1,0.5]];portConstraint=eastwest;whiteSpace=wrap;html=1;fontSize=16;shadow=0;strokeWidth=1;fillColor=#dae8fc;strokeColor=#6c8ebf;swimlaneFillColor=none;gradientColor=none;swimlaneLine=1;" vertex="1" parent="X8TvfzznWNyuIWe-dNTO-19">
          <mxGeometry y="138" width="180" height="26" as="geometry" />
        </mxCell>
        <mxCell id="X8TvfzznWNyuIWe-dNTO-26" value="+ method(type): type" style="text;align=left;verticalAlign=middle;spacingLeft=4;spacingRight=4;overflow=hidden;rotatable=0;points=[[0,0.5],[1,0.5]];portConstraint=eastwest;whiteSpace=wrap;html=1;fontSize=16;shadow=0;strokeWidth=1;fillColor=#dae8fc;strokeColor=#6c8ebf;swimlaneFillColor=none;gradientColor=none;swimlaneLine=1;" vertex="1" parent="X8TvfzznWNyuIWe-dNTO-19">
          <mxGeometry y="164" width="180" height="26" as="geometry" />
        </mxCell>
        <mxCell id="X8TvfzznWNyuIWe-dNTO-27" value="&lt;font style=&quot;font-size: 18px;&quot;&gt;Sale&lt;/font&gt;" style="swimlane;fontStyle=1;align=center;verticalAlign=middle;childLayout=stackLayout;horizontal=1;startSize=26;horizontalStack=0;resizeParent=1;resizeParentMax=0;resizeLast=0;collapsible=1;marginBottom=0;whiteSpace=wrap;html=1;fontSize=16;shadow=0;strokeWidth=1;fillColor=#dae8fc;strokeColor=#6c8ebf;swimlaneFillColor=none;gradientColor=none;swimlaneLine=1;glass=0;rounded=1;" vertex="1" parent="1">
          <mxGeometry x="490" y="88" width="240" height="216" as="geometry">
            <mxRectangle x="320" y="360" width="130" height="40" as="alternateBounds" />
          </mxGeometry>
        </mxCell>
        <mxCell id="X8TvfzznWNyuIWe-dNTO-28" value="- Long: id" style="text;align=left;verticalAlign=middle;spacingLeft=4;spacingRight=4;overflow=hidden;rotatable=0;points=[[0,0.5],[1,0.5]];portConstraint=eastwest;whiteSpace=wrap;html=1;fontSize=16;shadow=0;strokeWidth=1;fillColor=#dae8fc;strokeColor=#6c8ebf;swimlaneFillColor=none;gradientColor=none;swimlaneLine=1;" vertex="1" parent="X8TvfzznWNyuIWe-dNTO-27">
          <mxGeometry y="26" width="240" height="26" as="geometry" />
        </mxCell>
        <mxCell id="X8TvfzznWNyuIWe-dNTO-29" value="- Cleint: client" style="text;align=left;verticalAlign=middle;spacingLeft=4;spacingRight=4;overflow=hidden;rotatable=0;points=[[0,0.5],[1,0.5]];portConstraint=eastwest;whiteSpace=wrap;html=1;fontSize=16;shadow=0;strokeWidth=1;fillColor=#dae8fc;strokeColor=#6c8ebf;swimlaneFillColor=none;gradientColor=none;swimlaneLine=1;" vertex="1" parent="X8TvfzznWNyuIWe-dNTO-27">
          <mxGeometry y="52" width="240" height="26" as="geometry" />
        </mxCell>
        <mxCell id="X8TvfzznWNyuIWe-dNTO-30" value="- List&amp;lt;Product&amp;gt;: products" style="text;align=left;verticalAlign=middle;spacingLeft=4;spacingRight=4;overflow=hidden;rotatable=0;points=[[0,0.5],[1,0.5]];portConstraint=eastwest;whiteSpace=wrap;html=1;fontSize=16;shadow=0;strokeWidth=1;fillColor=#dae8fc;strokeColor=#6c8ebf;swimlaneFillColor=none;gradientColor=none;swimlaneLine=1;" vertex="1" parent="X8TvfzznWNyuIWe-dNTO-27">
          <mxGeometry y="78" width="240" height="26" as="geometry" />
        </mxCell>
        <mxCell id="X8TvfzznWNyuIWe-dNTO-31" value="- Double: totalPrice" style="text;align=left;verticalAlign=middle;spacingLeft=4;spacingRight=4;overflow=hidden;rotatable=0;points=[[0,0.5],[1,0.5]];portConstraint=eastwest;whiteSpace=wrap;html=1;fontSize=16;shadow=0;strokeWidth=1;fillColor=#dae8fc;strokeColor=#6c8ebf;swimlaneFillColor=none;gradientColor=none;swimlaneLine=1;" vertex="1" parent="X8TvfzznWNyuIWe-dNTO-27">
          <mxGeometry y="104" width="240" height="26" as="geometry" />
        </mxCell>
        <mxCell id="X8TvfzznWNyuIWe-dNTO-32" value="- LocalDateTime: date" style="text;align=left;verticalAlign=middle;spacingLeft=4;spacingRight=4;overflow=hidden;rotatable=0;points=[[0,0.5],[1,0.5]];portConstraint=eastwest;whiteSpace=wrap;html=1;fontSize=16;shadow=0;strokeWidth=1;fillColor=#dae8fc;strokeColor=#6c8ebf;swimlaneFillColor=none;gradientColor=none;swimlaneLine=1;" vertex="1" parent="X8TvfzznWNyuIWe-dNTO-27">
          <mxGeometry y="130" width="240" height="26" as="geometry" />
        </mxCell>
        <mxCell id="X8TvfzznWNyuIWe-dNTO-33" value="" style="line;strokeWidth=1;align=left;verticalAlign=middle;spacingTop=-1;spacingLeft=3;spacingRight=3;rotatable=0;labelPosition=right;points=[];portConstraint=eastwest;fontSize=16;shadow=0;fillColor=#dae8fc;strokeColor=#6c8ebf;swimlaneFillColor=none;gradientColor=none;swimlaneLine=1;" vertex="1" parent="X8TvfzznWNyuIWe-dNTO-27">
          <mxGeometry y="156" width="240" height="8" as="geometry" />
        </mxCell>
        <mxCell id="X8TvfzznWNyuIWe-dNTO-34" value="+ method(type): type" style="text;align=left;verticalAlign=middle;spacingLeft=4;spacingRight=4;overflow=hidden;rotatable=0;points=[[0,0.5],[1,0.5]];portConstraint=eastwest;whiteSpace=wrap;html=1;fontSize=16;shadow=0;strokeWidth=1;fillColor=#dae8fc;strokeColor=#6c8ebf;swimlaneFillColor=none;gradientColor=none;swimlaneLine=1;" vertex="1" parent="X8TvfzznWNyuIWe-dNTO-27">
          <mxGeometry y="164" width="240" height="26" as="geometry" />
        </mxCell>
        <mxCell id="X8TvfzznWNyuIWe-dNTO-35" value="+ method(type): type" style="text;align=left;verticalAlign=middle;spacingLeft=4;spacingRight=4;overflow=hidden;rotatable=0;points=[[0,0.5],[1,0.5]];portConstraint=eastwest;whiteSpace=wrap;html=1;fontSize=16;shadow=0;strokeWidth=1;fillColor=#dae8fc;strokeColor=#6c8ebf;swimlaneFillColor=none;gradientColor=none;swimlaneLine=1;" vertex="1" parent="X8TvfzznWNyuIWe-dNTO-27">
          <mxGeometry y="190" width="240" height="26" as="geometry" />
        </mxCell>
        <mxCell id="X8TvfzznWNyuIWe-dNTO-36" value="&lt;font style=&quot;font-size: 18px;&quot;&gt;ProductsSold&lt;/font&gt;" style="swimlane;fontStyle=1;align=center;verticalAlign=middle;childLayout=stackLayout;horizontal=1;startSize=26;horizontalStack=0;resizeParent=1;resizeParentMax=0;resizeLast=0;collapsible=1;marginBottom=0;whiteSpace=wrap;html=1;fontSize=16;shadow=0;strokeWidth=1;fillColor=#dae8fc;strokeColor=#6c8ebf;swimlaneFillColor=none;gradientColor=none;swimlaneLine=1;glass=0;rounded=1;" vertex="1" parent="1">
          <mxGeometry x="810" y="101" width="180" height="190" as="geometry">
            <mxRectangle x="320" y="360" width="130" height="40" as="alternateBounds" />
          </mxGeometry>
        </mxCell>
        <mxCell id="X8TvfzznWNyuIWe-dNTO-37" value="- Long: id" style="text;align=left;verticalAlign=middle;spacingLeft=4;spacingRight=4;overflow=hidden;rotatable=0;points=[[0,0.5],[1,0.5]];portConstraint=eastwest;whiteSpace=wrap;html=1;fontSize=16;shadow=0;strokeWidth=1;fillColor=#dae8fc;strokeColor=#6c8ebf;swimlaneFillColor=none;gradientColor=none;swimlaneLine=1;" vertex="1" parent="X8TvfzznWNyuIWe-dNTO-36">
          <mxGeometry y="26" width="180" height="26" as="geometry" />
        </mxCell>
        <mxCell id="X8TvfzznWNyuIWe-dNTO-38" value="- Sale: sale" style="text;align=left;verticalAlign=middle;spacingLeft=4;spacingRight=4;overflow=hidden;rotatable=0;points=[[0,0.5],[1,0.5]];portConstraint=eastwest;whiteSpace=wrap;html=1;fontSize=16;shadow=0;strokeWidth=1;fillColor=#dae8fc;strokeColor=#6c8ebf;swimlaneFillColor=none;gradientColor=none;swimlaneLine=1;" vertex="1" parent="X8TvfzznWNyuIWe-dNTO-36">
          <mxGeometry y="52" width="180" height="26" as="geometry" />
        </mxCell>
        <mxCell id="X8TvfzznWNyuIWe-dNTO-39" value="- Product: product" style="text;align=left;verticalAlign=middle;spacingLeft=4;spacingRight=4;overflow=hidden;rotatable=0;points=[[0,0.5],[1,0.5]];portConstraint=eastwest;whiteSpace=wrap;html=1;fontSize=16;shadow=0;strokeWidth=1;fillColor=#dae8fc;strokeColor=#6c8ebf;swimlaneFillColor=none;gradientColor=none;swimlaneLine=1;" vertex="1" parent="X8TvfzznWNyuIWe-dNTO-36">
          <mxGeometry y="78" width="180" height="26" as="geometry" />
        </mxCell>
        <mxCell id="X8TvfzznWNyuIWe-dNTO-40" value="- int: quantity" style="text;align=left;verticalAlign=middle;spacingLeft=4;spacingRight=4;overflow=hidden;rotatable=0;points=[[0,0.5],[1,0.5]];portConstraint=eastwest;whiteSpace=wrap;html=1;fontSize=16;shadow=0;strokeWidth=1;fillColor=#dae8fc;strokeColor=#6c8ebf;swimlaneFillColor=none;gradientColor=none;swimlaneLine=1;" vertex="1" parent="X8TvfzznWNyuIWe-dNTO-36">
          <mxGeometry y="104" width="180" height="26" as="geometry" />
        </mxCell>
        <mxCell id="X8TvfzznWNyuIWe-dNTO-41" value="" style="line;strokeWidth=1;align=left;verticalAlign=middle;spacingTop=-1;spacingLeft=3;spacingRight=3;rotatable=0;labelPosition=right;points=[];portConstraint=eastwest;fontSize=16;shadow=0;fillColor=#dae8fc;strokeColor=#6c8ebf;swimlaneFillColor=none;gradientColor=none;swimlaneLine=1;" vertex="1" parent="X8TvfzznWNyuIWe-dNTO-36">
          <mxGeometry y="130" width="180" height="8" as="geometry" />
        </mxCell>
        <mxCell id="X8TvfzznWNyuIWe-dNTO-42" value="+ method(type): type" style="text;align=left;verticalAlign=middle;spacingLeft=4;spacingRight=4;overflow=hidden;rotatable=0;points=[[0,0.5],[1,0.5]];portConstraint=eastwest;whiteSpace=wrap;html=1;fontSize=16;shadow=0;strokeWidth=1;fillColor=#dae8fc;strokeColor=#6c8ebf;swimlaneFillColor=none;gradientColor=none;swimlaneLine=1;" vertex="1" parent="X8TvfzznWNyuIWe-dNTO-36">
          <mxGeometry y="138" width="180" height="26" as="geometry" />
        </mxCell>
        <mxCell id="X8TvfzznWNyuIWe-dNTO-43" value="+ method(type): type" style="text;align=left;verticalAlign=middle;spacingLeft=4;spacingRight=4;overflow=hidden;rotatable=0;points=[[0,0.5],[1,0.5]];portConstraint=eastwest;whiteSpace=wrap;html=1;fontSize=16;shadow=0;strokeWidth=1;fillColor=#dae8fc;strokeColor=#6c8ebf;swimlaneFillColor=none;gradientColor=none;swimlaneLine=1;" vertex="1" parent="X8TvfzznWNyuIWe-dNTO-36">
          <mxGeometry y="164" width="180" height="26" as="geometry" />
        </mxCell>
        <mxCell id="X8TvfzznWNyuIWe-dNTO-44" value="&lt;font style=&quot;font-size: 18px;&quot;&gt;UsersRegister&lt;/font&gt;" style="swimlane;fontStyle=1;align=center;verticalAlign=middle;childLayout=stackLayout;horizontal=1;startSize=26;horizontalStack=0;resizeParent=1;resizeParentMax=0;resizeLast=0;collapsible=1;marginBottom=0;whiteSpace=wrap;html=1;fontSize=16;shadow=0;strokeWidth=1;fillColor=#dae8fc;strokeColor=#6c8ebf;swimlaneFillColor=none;gradientColor=none;swimlaneLine=1;glass=0;rounded=1;" vertex="1" parent="1">
          <mxGeometry x="780" y="-210" width="180" height="242" as="geometry">
            <mxRectangle x="320" y="360" width="130" height="40" as="alternateBounds" />
          </mxGeometry>
        </mxCell>
        <mxCell id="X8TvfzznWNyuIWe-dNTO-45" value="- Long: id" style="text;align=left;verticalAlign=middle;spacingLeft=4;spacingRight=4;overflow=hidden;rotatable=0;points=[[0,0.5],[1,0.5]];portConstraint=eastwest;whiteSpace=wrap;html=1;fontSize=16;shadow=0;strokeWidth=1;fillColor=#dae8fc;strokeColor=#6c8ebf;swimlaneFillColor=none;gradientColor=none;swimlaneLine=1;" vertex="1" parent="X8TvfzznWNyuIWe-dNTO-44">
          <mxGeometry y="26" width="180" height="26" as="geometry" />
        </mxCell>
        <mxCell id="X8TvfzznWNyuIWe-dNTO-46" value="- String: name" style="text;align=left;verticalAlign=middle;spacingLeft=4;spacingRight=4;overflow=hidden;rotatable=0;points=[[0,0.5],[1,0.5]];portConstraint=eastwest;whiteSpace=wrap;html=1;fontSize=16;shadow=0;strokeWidth=1;fillColor=#dae8fc;strokeColor=#6c8ebf;swimlaneFillColor=none;gradientColor=none;swimlaneLine=1;" vertex="1" parent="X8TvfzznWNyuIWe-dNTO-44">
          <mxGeometry y="52" width="180" height="26" as="geometry" />
        </mxCell>
        <mxCell id="X8TvfzznWNyuIWe-dNTO-47" value="- String: email" style="text;align=left;verticalAlign=middle;spacingLeft=4;spacingRight=4;overflow=hidden;rotatable=0;points=[[0,0.5],[1,0.5]];portConstraint=eastwest;whiteSpace=wrap;html=1;fontSize=16;shadow=0;strokeWidth=1;fillColor=#dae8fc;strokeColor=#6c8ebf;swimlaneFillColor=none;gradientColor=none;swimlaneLine=1;" vertex="1" parent="X8TvfzznWNyuIWe-dNTO-44">
          <mxGeometry y="78" width="180" height="26" as="geometry" />
        </mxCell>
        <mxCell id="X8TvfzznWNyuIWe-dNTO-48" value="- String: password" style="text;align=left;verticalAlign=middle;spacingLeft=4;spacingRight=4;overflow=hidden;rotatable=0;points=[[0,0.5],[1,0.5]];portConstraint=eastwest;whiteSpace=wrap;html=1;fontSize=16;shadow=0;strokeWidth=1;fillColor=#dae8fc;strokeColor=#6c8ebf;swimlaneFillColor=none;gradientColor=none;swimlaneLine=1;" vertex="1" parent="X8TvfzznWNyuIWe-dNTO-44">
          <mxGeometry y="104" width="180" height="26" as="geometry" />
        </mxCell>
        <mxCell id="X8TvfzznWNyuIWe-dNTO-49" value="- int: age" style="text;align=left;verticalAlign=middle;spacingLeft=4;spacingRight=4;overflow=hidden;rotatable=0;points=[[0,0.5],[1,0.5]];portConstraint=eastwest;whiteSpace=wrap;html=1;fontSize=16;shadow=0;strokeWidth=1;fillColor=#dae8fc;strokeColor=#6c8ebf;swimlaneFillColor=none;gradientColor=none;swimlaneLine=1;" vertex="1" parent="X8TvfzznWNyuIWe-dNTO-44">
          <mxGeometry y="130" width="180" height="26" as="geometry" />
        </mxCell>
        <mxCell id="X8TvfzznWNyuIWe-dNTO-50" value="- int: phoneNumber" style="text;align=left;verticalAlign=middle;spacingLeft=4;spacingRight=4;overflow=hidden;rotatable=0;points=[[0,0.5],[1,0.5]];portConstraint=eastwest;whiteSpace=wrap;html=1;fontSize=16;shadow=0;strokeWidth=1;fillColor=#dae8fc;strokeColor=#6c8ebf;swimlaneFillColor=none;gradientColor=none;swimlaneLine=1;" vertex="1" parent="X8TvfzznWNyuIWe-dNTO-44">
          <mxGeometry y="156" width="180" height="26" as="geometry" />
        </mxCell>
        <mxCell id="X8TvfzznWNyuIWe-dNTO-51" value="" style="line;strokeWidth=1;align=left;verticalAlign=middle;spacingTop=-1;spacingLeft=3;spacingRight=3;rotatable=0;labelPosition=right;points=[];portConstraint=eastwest;fontSize=16;shadow=0;fillColor=#dae8fc;strokeColor=#6c8ebf;swimlaneFillColor=none;gradientColor=none;swimlaneLine=1;" vertex="1" parent="X8TvfzznWNyuIWe-dNTO-44">
          <mxGeometry y="182" width="180" height="8" as="geometry" />
        </mxCell>
        <mxCell id="X8TvfzznWNyuIWe-dNTO-52" value="+ method(type): type" style="text;align=left;verticalAlign=middle;spacingLeft=4;spacingRight=4;overflow=hidden;rotatable=0;points=[[0,0.5],[1,0.5]];portConstraint=eastwest;whiteSpace=wrap;html=1;fontSize=16;shadow=0;strokeWidth=1;fillColor=#dae8fc;strokeColor=#6c8ebf;swimlaneFillColor=none;gradientColor=none;swimlaneLine=1;" vertex="1" parent="X8TvfzznWNyuIWe-dNTO-44">
          <mxGeometry y="190" width="180" height="26" as="geometry" />
        </mxCell>
        <mxCell id="X8TvfzznWNyuIWe-dNTO-53" value="+ method(type): type" style="text;align=left;verticalAlign=middle;spacingLeft=4;spacingRight=4;overflow=hidden;rotatable=0;points=[[0,0.5],[1,0.5]];portConstraint=eastwest;whiteSpace=wrap;html=1;fontSize=16;shadow=0;strokeWidth=1;fillColor=#dae8fc;strokeColor=#6c8ebf;swimlaneFillColor=none;gradientColor=none;swimlaneLine=1;" vertex="1" parent="X8TvfzznWNyuIWe-dNTO-44">
          <mxGeometry y="216" width="180" height="26" as="geometry" />
        </mxCell>
        <mxCell id="X8TvfzznWNyuIWe-dNTO-54" value="&lt;font style=&quot;font-size: 18px;&quot;&gt;Login&lt;/font&gt;" style="swimlane;fontStyle=1;align=center;verticalAlign=middle;childLayout=stackLayout;horizontal=1;startSize=26;horizontalStack=0;resizeParent=1;resizeParentMax=0;resizeLast=0;collapsible=1;marginBottom=0;whiteSpace=wrap;html=1;fontSize=16;shadow=0;strokeWidth=1;fillColor=#dae8fc;strokeColor=#6c8ebf;swimlaneFillColor=none;gradientColor=none;swimlaneLine=1;glass=0;rounded=1;" vertex="1" parent="1">
          <mxGeometry x="990" y="-210" width="180" height="138" as="geometry">
            <mxRectangle x="320" y="360" width="130" height="40" as="alternateBounds" />
          </mxGeometry>
        </mxCell>
        <mxCell id="X8TvfzznWNyuIWe-dNTO-55" value="- String: email" style="text;align=left;verticalAlign=middle;spacingLeft=4;spacingRight=4;overflow=hidden;rotatable=0;points=[[0,0.5],[1,0.5]];portConstraint=eastwest;whiteSpace=wrap;html=1;fontSize=16;shadow=0;strokeWidth=1;fillColor=#dae8fc;strokeColor=#6c8ebf;swimlaneFillColor=none;gradientColor=none;swimlaneLine=1;" vertex="1" parent="X8TvfzznWNyuIWe-dNTO-54">
          <mxGeometry y="26" width="180" height="26" as="geometry" />
        </mxCell>
        <mxCell id="X8TvfzznWNyuIWe-dNTO-56" value="- String: password" style="text;align=left;verticalAlign=middle;spacingLeft=4;spacingRight=4;overflow=hidden;rotatable=0;points=[[0,0.5],[1,0.5]];portConstraint=eastwest;whiteSpace=wrap;html=1;fontSize=16;shadow=0;strokeWidth=1;fillColor=#dae8fc;strokeColor=#6c8ebf;swimlaneFillColor=none;gradientColor=none;swimlaneLine=1;" vertex="1" parent="X8TvfzznWNyuIWe-dNTO-54">
          <mxGeometry y="52" width="180" height="26" as="geometry" />
        </mxCell>
        <mxCell id="X8TvfzznWNyuIWe-dNTO-57" value="" style="line;strokeWidth=1;align=left;verticalAlign=middle;spacingTop=-1;spacingLeft=3;spacingRight=3;rotatable=0;labelPosition=right;points=[];portConstraint=eastwest;fontSize=16;shadow=0;fillColor=#dae8fc;strokeColor=#6c8ebf;swimlaneFillColor=none;gradientColor=none;swimlaneLine=1;" vertex="1" parent="X8TvfzznWNyuIWe-dNTO-54">
          <mxGeometry y="78" width="180" height="8" as="geometry" />
        </mxCell>
        <mxCell id="X8TvfzznWNyuIWe-dNTO-58" value="+ method(type): type" style="text;align=left;verticalAlign=middle;spacingLeft=4;spacingRight=4;overflow=hidden;rotatable=0;points=[[0,0.5],[1,0.5]];portConstraint=eastwest;whiteSpace=wrap;html=1;fontSize=16;shadow=0;strokeWidth=1;fillColor=#dae8fc;strokeColor=#6c8ebf;swimlaneFillColor=none;gradientColor=none;swimlaneLine=1;" vertex="1" parent="X8TvfzznWNyuIWe-dNTO-54">
          <mxGeometry y="86" width="180" height="26" as="geometry" />
        </mxCell>
        <mxCell id="X8TvfzznWNyuIWe-dNTO-59" value="+ method(type): type" style="text;align=left;verticalAlign=middle;spacingLeft=4;spacingRight=4;overflow=hidden;rotatable=0;points=[[0,0.5],[1,0.5]];portConstraint=eastwest;whiteSpace=wrap;html=1;fontSize=16;shadow=0;strokeWidth=1;fillColor=#dae8fc;strokeColor=#6c8ebf;swimlaneFillColor=none;gradientColor=none;swimlaneLine=1;" vertex="1" parent="X8TvfzznWNyuIWe-dNTO-54">
          <mxGeometry y="112" width="180" height="26" as="geometry" />
        </mxCell>
        <mxCell id="X8TvfzznWNyuIWe-dNTO-60" value="&lt;font style=&quot;font-size: 18px;&quot;&gt;Bill&lt;/font&gt;" style="swimlane;fontStyle=1;align=center;verticalAlign=middle;childLayout=stackLayout;horizontal=1;startSize=26;horizontalStack=0;resizeParent=1;resizeParentMax=0;resizeLast=0;collapsible=1;marginBottom=0;whiteSpace=wrap;html=1;fontSize=16;shadow=0;strokeWidth=1;fillColor=#dae8fc;strokeColor=#6c8ebf;swimlaneFillColor=none;gradientColor=none;swimlaneLine=1;glass=0;rounded=1;" vertex="1" parent="1">
          <mxGeometry x="250" y="101" width="180" height="164" as="geometry">
            <mxRectangle x="320" y="360" width="130" height="40" as="alternateBounds" />
          </mxGeometry>
        </mxCell>
        <mxCell id="X8TvfzznWNyuIWe-dNTO-61" value="- Long: id" style="text;align=left;verticalAlign=middle;spacingLeft=4;spacingRight=4;overflow=hidden;rotatable=0;points=[[0,0.5],[1,0.5]];portConstraint=eastwest;whiteSpace=wrap;html=1;fontSize=16;shadow=0;strokeWidth=1;fillColor=#dae8fc;strokeColor=#6c8ebf;swimlaneFillColor=none;gradientColor=none;swimlaneLine=1;" vertex="1" parent="X8TvfzznWNyuIWe-dNTO-60">
          <mxGeometry y="26" width="180" height="26" as="geometry" />
        </mxCell>
        <mxCell id="X8TvfzznWNyuIWe-dNTO-62" value="- String: sellerName" style="text;align=left;verticalAlign=middle;spacingLeft=4;spacingRight=4;overflow=hidden;rotatable=0;points=[[0,0.5],[1,0.5]];portConstraint=eastwest;whiteSpace=wrap;html=1;fontSize=16;shadow=0;strokeWidth=1;fillColor=#dae8fc;strokeColor=#6c8ebf;swimlaneFillColor=none;gradientColor=none;swimlaneLine=1;" vertex="1" parent="X8TvfzznWNyuIWe-dNTO-60">
          <mxGeometry y="52" width="180" height="26" as="geometry" />
        </mxCell>
        <mxCell id="X8TvfzznWNyuIWe-dNTO-63" value="- Sale: sale" style="text;align=left;verticalAlign=middle;spacingLeft=4;spacingRight=4;overflow=hidden;rotatable=0;points=[[0,0.5],[1,0.5]];portConstraint=eastwest;whiteSpace=wrap;html=1;fontSize=16;shadow=0;strokeWidth=1;fillColor=#dae8fc;strokeColor=#6c8ebf;swimlaneFillColor=none;gradientColor=none;swimlaneLine=1;" vertex="1" parent="X8TvfzznWNyuIWe-dNTO-60">
          <mxGeometry y="78" width="180" height="26" as="geometry" />
        </mxCell>
        <mxCell id="X8TvfzznWNyuIWe-dNTO-64" value="" style="line;strokeWidth=1;align=left;verticalAlign=middle;spacingTop=-1;spacingLeft=3;spacingRight=3;rotatable=0;labelPosition=right;points=[];portConstraint=eastwest;fontSize=16;shadow=0;fillColor=#dae8fc;strokeColor=#6c8ebf;swimlaneFillColor=none;gradientColor=none;swimlaneLine=1;" vertex="1" parent="X8TvfzznWNyuIWe-dNTO-60">
          <mxGeometry y="104" width="180" height="8" as="geometry" />
        </mxCell>
        <mxCell id="X8TvfzznWNyuIWe-dNTO-65" value="+ method(type): type" style="text;align=left;verticalAlign=middle;spacingLeft=4;spacingRight=4;overflow=hidden;rotatable=0;points=[[0,0.5],[1,0.5]];portConstraint=eastwest;whiteSpace=wrap;html=1;fontSize=16;shadow=0;strokeWidth=1;fillColor=#dae8fc;strokeColor=#6c8ebf;swimlaneFillColor=none;gradientColor=none;swimlaneLine=1;" vertex="1" parent="X8TvfzznWNyuIWe-dNTO-60">
          <mxGeometry y="112" width="180" height="26" as="geometry" />
        </mxCell>
        <mxCell id="X8TvfzznWNyuIWe-dNTO-66" value="+ method(type): type" style="text;align=left;verticalAlign=middle;spacingLeft=4;spacingRight=4;overflow=hidden;rotatable=0;points=[[0,0.5],[1,0.5]];portConstraint=eastwest;whiteSpace=wrap;html=1;fontSize=16;shadow=0;strokeWidth=1;fillColor=#dae8fc;strokeColor=#6c8ebf;swimlaneFillColor=none;gradientColor=none;swimlaneLine=1;" vertex="1" parent="X8TvfzznWNyuIWe-dNTO-60">
          <mxGeometry y="138" width="180" height="26" as="geometry" />
        </mxCell>
        <mxCell id="X8TvfzznWNyuIWe-dNTO-67" value="&lt;font style=&quot;font-size: 18px;&quot;&gt;Warehouse&lt;/font&gt;" style="swimlane;fontStyle=1;align=center;verticalAlign=middle;childLayout=stackLayout;horizontal=1;startSize=26;horizontalStack=0;resizeParent=1;resizeParentMax=0;resizeLast=0;collapsible=1;marginBottom=0;whiteSpace=wrap;html=1;fontSize=16;shadow=0;strokeWidth=1;fillColor=#dae8fc;strokeColor=#6c8ebf;swimlaneFillColor=none;gradientColor=none;swimlaneLine=1;glass=0;rounded=1;" vertex="1" parent="1">
          <mxGeometry x="1500" y="88" width="180" height="216" as="geometry">
            <mxRectangle x="320" y="360" width="130" height="40" as="alternateBounds" />
          </mxGeometry>
        </mxCell>
        <mxCell id="X8TvfzznWNyuIWe-dNTO-68" value="- Long: id" style="text;align=left;verticalAlign=middle;spacingLeft=4;spacingRight=4;overflow=hidden;rotatable=0;points=[[0,0.5],[1,0.5]];portConstraint=eastwest;whiteSpace=wrap;html=1;fontSize=16;shadow=0;strokeWidth=1;fillColor=#dae8fc;strokeColor=#6c8ebf;swimlaneFillColor=none;gradientColor=none;swimlaneLine=1;" vertex="1" parent="X8TvfzznWNyuIWe-dNTO-67">
          <mxGeometry y="26" width="180" height="26" as="geometry" />
        </mxCell>
        <mxCell id="X8TvfzznWNyuIWe-dNTO-69" value="- String: name" style="text;align=left;verticalAlign=middle;spacingLeft=4;spacingRight=4;overflow=hidden;rotatable=0;points=[[0,0.5],[1,0.5]];portConstraint=eastwest;whiteSpace=wrap;html=1;fontSize=16;shadow=0;strokeWidth=1;fillColor=#dae8fc;strokeColor=#6c8ebf;swimlaneFillColor=none;gradientColor=none;swimlaneLine=1;" vertex="1" parent="X8TvfzznWNyuIWe-dNTO-67">
          <mxGeometry y="52" width="180" height="26" as="geometry" />
        </mxCell>
        <mxCell id="X8TvfzznWNyuIWe-dNTO-70" value="- String: address" style="text;align=left;verticalAlign=middle;spacingLeft=4;spacingRight=4;overflow=hidden;rotatable=0;points=[[0,0.5],[1,0.5]];portConstraint=eastwest;whiteSpace=wrap;html=1;fontSize=16;shadow=0;strokeWidth=1;fillColor=#dae8fc;strokeColor=#6c8ebf;swimlaneFillColor=none;gradientColor=none;swimlaneLine=1;" vertex="1" parent="X8TvfzznWNyuIWe-dNTO-67">
          <mxGeometry y="78" width="180" height="26" as="geometry" />
        </mxCell>
        <mxCell id="X8TvfzznWNyuIWe-dNTO-71" value="- Product: product" style="text;align=left;verticalAlign=middle;spacingLeft=4;spacingRight=4;overflow=hidden;rotatable=0;points=[[0,0.5],[1,0.5]];portConstraint=eastwest;whiteSpace=wrap;html=1;fontSize=16;shadow=0;strokeWidth=1;fillColor=#dae8fc;strokeColor=#6c8ebf;swimlaneFillColor=none;gradientColor=none;swimlaneLine=1;" vertex="1" parent="X8TvfzznWNyuIWe-dNTO-67">
          <mxGeometry y="104" width="180" height="26" as="geometry" />
        </mxCell>
        <mxCell id="X8TvfzznWNyuIWe-dNTO-72" value="- Integer: quantity" style="text;align=left;verticalAlign=middle;spacingLeft=4;spacingRight=4;overflow=hidden;rotatable=0;points=[[0,0.5],[1,0.5]];portConstraint=eastwest;whiteSpace=wrap;html=1;fontSize=16;shadow=0;strokeWidth=1;fillColor=#dae8fc;strokeColor=#6c8ebf;swimlaneFillColor=none;gradientColor=none;swimlaneLine=1;" vertex="1" parent="X8TvfzznWNyuIWe-dNTO-67">
          <mxGeometry y="130" width="180" height="26" as="geometry" />
        </mxCell>
        <mxCell id="X8TvfzznWNyuIWe-dNTO-73" value="" style="line;strokeWidth=1;align=left;verticalAlign=middle;spacingTop=-1;spacingLeft=3;spacingRight=3;rotatable=0;labelPosition=right;points=[];portConstraint=eastwest;fontSize=16;shadow=0;fillColor=#dae8fc;strokeColor=#6c8ebf;swimlaneFillColor=none;gradientColor=none;swimlaneLine=1;" vertex="1" parent="X8TvfzznWNyuIWe-dNTO-67">
          <mxGeometry y="156" width="180" height="8" as="geometry" />
        </mxCell>
        <mxCell id="X8TvfzznWNyuIWe-dNTO-74" value="+ method(type): type" style="text;align=left;verticalAlign=middle;spacingLeft=4;spacingRight=4;overflow=hidden;rotatable=0;points=[[0,0.5],[1,0.5]];portConstraint=eastwest;whiteSpace=wrap;html=1;fontSize=16;shadow=0;strokeWidth=1;fillColor=#dae8fc;strokeColor=#6c8ebf;swimlaneFillColor=none;gradientColor=none;swimlaneLine=1;" vertex="1" parent="X8TvfzznWNyuIWe-dNTO-67">
          <mxGeometry y="164" width="180" height="26" as="geometry" />
        </mxCell>
        <mxCell id="X8TvfzznWNyuIWe-dNTO-75" value="+ method(type): type" style="text;align=left;verticalAlign=middle;spacingLeft=4;spacingRight=4;overflow=hidden;rotatable=0;points=[[0,0.5],[1,0.5]];portConstraint=eastwest;whiteSpace=wrap;html=1;fontSize=16;shadow=0;strokeWidth=1;fillColor=#dae8fc;strokeColor=#6c8ebf;swimlaneFillColor=none;gradientColor=none;swimlaneLine=1;" vertex="1" parent="X8TvfzznWNyuIWe-dNTO-67">
          <mxGeometry y="190" width="180" height="26" as="geometry" />
        </mxCell>
      </root>
    </mxGraphModel>
  </diagram>
</mxfile>
